<svg width="100%" viewBox="0 0 680 420" role="img" xmlns="http://www.w3.org/2000/svg">
<title>Da Vinci Ultimatium</title>
<defs><pattern id="dots" width="20" height="20" patternUnits="userSpaceOnUse"><circle cx="10" cy="10" r="0.8" fill="#6B4F10" opacity="0.35"/></pattern>
<pattern id="grid" width="40" height="40" patternUnits="userSpaceOnUse"><path d="M40 0L0 0 0 40" fill="none" stroke="#8B6914" stroke-width="0.3" opacity="0.4"/></pattern></defs>
<rect width="680" height="420" fill="#F5EDD0"/><rect width="680" height="420" fill="url(#dots)"/>
<rect x="12" y="12" width="656" height="396" rx="3" fill="none" stroke="#7A5C14" stroke-width="1.2" opacity="0.7"/>
<rect x="12" y="12" width="260" height="396" fill="url(#grid)" opacity="0.6"/>
<line x1="200" y1="50" x2="200" y2="370" stroke="#7A5C14" stroke-width="1.5" opacity="0.5"/>
<circle cx="200" cy="130" r="42" fill="none" stroke="#7A5C14" stroke-width="0.8" opacity="0.5"/>
<circle cx="200" cy="130" r="28" fill="none" stroke="#9B7A20" stroke-width="0.5" opacity="0.4"/>
<circle cx="200" cy="130" r="8" fill="#9B7A20" opacity="0.35"/>
<path d="M170 230 Q180 240 200 240 Q220 240 230 250 Q220 260 200 260 Q180 260 170 270 Q180 280 200 280 Q220 280 230 290 Q220 300 200 300 Q180 300 170 310" fill="none" stroke="#7A5C14" stroke-width="1" opacity="0.45"/>
<rect x="272" y="12" width="4" height="396" fill="#C8A84B" opacity="0.2"/>
<text x="470" y="72" text-anchor="middle" font-family="Georgia, serif" font-size="10" fill="#7A5C14" opacity="0.8" letter-spacing="3">CORPUS LEONARDIANUM UNIVERSALE</text>
<line x1="310" y1="80" x2="630" y2="80" stroke="#9B7A20" stroke-width="0.5" opacity="0.5"/>
<text x="470" y="130" text-anchor="middle" font-family="Georgia, serif" font-size="36" font-weight="bold" fill="#3D2B08" letter-spacing="1">DA VINCI</text>
<text x="470" y="168" text-anchor="middle" font-family="Georgia, serif" font-size="36" font-weight="bold" fill="#3D2B08" letter-spacing="1">ULTIMATIUM</text>
<line x1="320" y1="185" x2="620" y2="185" stroke="#9B7A20" stroke-width="1" opacity="0.6"/>
<text x="470" y="218" text-anchor="middle" font-family="Georgia, serif" font-size="13" fill="#5C3D10" font-style="italic">Constitutional Master Repository</text>
<text x="470" y="238" text-anchor="middle" font-family="Georgia, serif" font-size="13" fill="#5C3D10" font-style="italic">Ecosystem A</text>
<text x="470" y="280" text-anchor="middle" font-family="Georgia, serif" font-size="12" fill="#7A5C14">Richard Steven Vallance</text>
<text x="470" y="298" text-anchor="middle" font-family="Georgia, serif" font-size="11" fill="#9B7A20" font-style="italic">Da Valenca - Leonardo Project</text>
<rect x="370" y="318" width="200" height="26" rx="2" fill="none" stroke="#9B7A20" stroke-width="0.6" opacity="0.5"/>
<text x="470" y="335" text-anchor="middle" font-family="Georgia, serif" font-size="10" fill="#5C3D10" letter-spacing="2">CONSTITUTIONAL INFRASTRUCTURE</text>
<text x="470" y="368" text-anchor="middle" font-family="Georgia, serif" font-size="11" fill="#9B7A20" opacity="0.7">2026</text>
</svg>